<?xml version="1.0" standalone="no"?>
<!DOCTYPE svg PUBLIC "-//W3C//DTD SVG 20010904//EN"
 "http://www.w3.org/TR/2001/REC-SVG-20010904/DTD/svg10.dtd">
<svg version="1.0" xmlns="http://www.w3.org/2000/svg"
 width="640.000000pt" height="640.000000pt" viewBox="0 0 640.000000 640.000000"
 preserveAspectRatio="xMidYMid meet">
<metadata>
Created by potrace 1.11, written by Peter Selinger 2001-2013
</metadata>
<g transform="translate(0.000000,640.000000) scale(0.100000,-0.100000)"
fill="#000000" stroke="none">
<path d="M0 5725 l0 -675 25 -16 c14 -9 25 -22 25 -29 0 -7 9 -15 20 -18 11
-3 24 -17 30 -32 9 -22 13 -25 25 -15 8 7 13 16 10 20 -3 5 5 12 17 16 13 4
39 17 58 29 86 56 106 36 36 -37 l-44 -46 14 -53 c8 -29 12 -61 9 -70 -6 -16
45 -69 66 -69 6 0 7 -4 4 -10 -3 -5 -1 -11 4 -11 15 -2 23 -4 42 -13 9 -4 22
-6 29 -4 7 2 17 -13 24 -32 20 -62 30 -74 61 -66 19 5 26 12 23 24 -5 16 1 17
51 11 31 -4 66 -8 79 -8 14 -1 22 -7 22 -18 0 -16 12 -18 82 -20 51 -2 85 -7
89 -15 6 -9 10 -8 15 5 8 22 41 22 48 0 5 -16 15 -17 98 -11 149 11 189 18
186 36 -4 22 50 36 54 13 3 -13 10 -9 35 17 19 20 41 32 57 32 14 0 29 7 34
16 5 9 18 17 28 18 11 1 32 8 47 16 24 12 30 12 37 0 4 -7 15 -10 23 -7 8 3
23 0 33 -7 15 -11 20 -11 32 1 19 18 36 12 40 -15 3 -16 -1 -19 -17 -15 -22 6
-26 -3 -12 -26 8 -12 12 -12 25 -2 10 8 16 9 16 3 0 -6 12 -17 28 -24 24 -12
27 -19 24 -57 -2 -27 1 -40 8 -36 5 3 10 13 10 21 0 12 4 12 20 2 13 -9 21
-28 26 -65 6 -50 8 -53 40 -59 24 -4 34 -12 34 -24 0 -10 7 -25 15 -34 8 -8
15 -30 15 -48 0 -37 54 -138 73 -138 47 0 77 87 77 222 0 47 5 110 11 140 6
29 13 64 16 77 l4 24 15 -28 c8 -15 14 -37 14 -49 0 -40 15 -39 26 1 l12 38
10 -27 c6 -14 15 -29 20 -32 9 -6 22 84 22 158 0 46 22 155 40 201 14 36 26
45 66 45 17 0 45 7 63 16 35 17 61 7 61 -25 0 -9 11 -38 25 -66 13 -27 25 -57
25 -65 0 -8 14 -31 31 -50 l31 -35 -4 43 c-2 23 1 42 6 42 6 0 54 -45 107
-100 54 -55 102 -100 107 -100 5 0 14 10 20 23 9 19 11 16 11 -25 1 -50 15
-71 26 -38 4 11 8 86 10 166 1 80 5 148 9 151 6 7 101 -86 151 -149 16 -21 35
-38 41 -38 6 0 17 -12 24 -27 l13 -28 9 28 c12 35 20 34 38 -5 l15 -33 3 58
c2 31 5 57 9 57 3 0 32 -22 65 -50 33 -27 63 -50 68 -50 4 0 11 16 14 35 8 41
18 44 36 10 15 -28 30 -33 30 -10 0 7 -7 40 -16 72 -9 32 -19 70 -21 86 -3 15
-9 30 -14 33 -5 3 -9 16 -9 29 0 13 -4 27 -10 30 -5 3 -10 16 -10 29 0 12 -4
26 -9 31 -4 6 -13 25 -19 43 l-11 32 42 -32 c57 -45 297 -285 297 -298 0 -6
19 -34 43 -63 30 -37 49 -75 65 -127 12 -41 27 -88 33 -105 6 -16 12 -40 15
-53 3 -13 13 -40 24 -60 11 -20 20 -42 20 -48 0 -7 7 -14 15 -18 8 -3 15 -11
15 -19 0 -7 14 -23 30 -35 17 -13 30 -18 30 -12 0 5 4 10 9 10 4 0 14 -23 22
-52 11 -42 19 -53 39 -58 14 -3 26 -14 28 -25 2 -11 10 -27 18 -36 8 -8 16
-29 18 -45 3 -16 8 -46 11 -66 5 -30 11 -38 35 -43 38 -8 48 -24 26 -41 -11
-7 -13 -15 -7 -19 13 -7 51 12 51 26 0 6 -5 7 -10 4 -9 -5 6 31 39 94 4 8 20
18 36 22 15 5 37 16 49 27 50 44 132 55 176 25 14 -10 27 -17 30 -17 28 6 83
-57 109 -123 18 -47 19 -57 7 -90 -7 -21 -16 -59 -20 -84 -4 -25 -16 -56 -26
-67 -26 -28 -26 -82 0 -157 l20 -59 -29 -63 c-17 -35 -34 -63 -39 -63 -5 0
-12 -9 -15 -20 -3 -12 -11 -18 -19 -15 -8 3 -22 -3 -33 -14 -10 -12 -33 -23
-52 -27 -18 -3 -38 -14 -43 -24 -6 -10 -25 -23 -44 -30 -44 -14 -64 -37 -74
-85 -7 -36 -11 -40 -56 -51 -47 -12 -111 -9 -131 6 -14 11 -97 11 -110 1 -5
-5 -25 -12 -43 -16 -35 -7 -82 -50 -82 -74 0 -25 -31 -124 -56 -179 -35 -77
-212 -295 -369 -456 -83 -84 -213 -200 -240 -212 -16 -8 -48 -25 -70 -39 -58
-35 -103 -55 -157 -66 -27 -6 -48 -15 -48 -20 0 -12 131 0 144 12 6 5 22 9 37
9 15 0 29 3 31 8 1 4 28 20 58 36 30 16 57 32 60 36 3 5 18 12 33 15 23 6 29
4 34 -14 3 -11 9 -21 13 -21 4 0 10 -15 13 -32 10 -63 41 -168 49 -168 4 0 8
4 8 10 0 13 79 90 93 90 7 0 23 10 37 21 82 66 252 153 284 145 12 -3 43 -22
69 -42 52 -41 59 -67 27 -102 l-21 -22 35 0 c30 0 44 -9 95 -62 34 -35 61 -66
61 -71 0 -4 24 -31 53 -60 87 -85 161 -177 205 -255 47 -82 50 -98 25 -119
-16 -13 -16 -14 8 -9 23 5 27 2 32 -22 5 -25 2 -49 -18 -154 l-8 -38 49 0 c60
-1 191 -17 206 -26 12 -8 -9 -24 -33 -24 -9 0 -43 -12 -75 -27 l-59 -28 55 -7
c89 -10 135 -23 168 -46 16 -12 33 -22 37 -22 3 0 12 -6 19 -12 7 -7 28 -24
47 -38 38 -28 143 -123 204 -185 74 -76 194 -255 228 -343 9 -23 31 -73 48
-110 17 -37 35 -76 39 -87 5 -11 18 -42 30 -70 12 -27 23 -59 25 -70 1 -11 6
-32 10 -47 l7 -28 614 0 614 0 -1 633 c-1 347 -4 621 -8 607 -8 -29 -61 -59
-108 -60 -17 0 -42 -4 -56 -9 -44 -17 -99 -22 -113 -10 -8 6 -21 8 -30 5 -9
-4 -32 3 -50 13 -19 11 -34 16 -34 11 0 -13 -37 -13 -45 0 -8 13 -55 13 -55 0
0 -23 -44 -28 -72 -9 -14 11 -31 19 -37 19 -6 0 -11 6 -11 14 0 17 -22 26 -63
26 -18 0 -39 5 -47 10 -11 7 0 10 38 10 33 0 51 4 47 10 -3 6 -15 10 -26 10
-10 0 -19 5 -19 10 0 11 20 14 59 11 17 -2 22 2 18 12 -4 10 3 14 24 15 19 0
29 -4 29 -14 0 -17 55 -19 94 -4 14 5 58 10 98 11 40 1 85 8 100 16 15 7 38
13 52 13 39 0 56 10 56 35 0 12 8 30 19 39 16 15 17 23 8 57 -7 28 -6 47 1 65
10 22 18 24 72 24 l60 0 0 165 0 165 -74 0 c-81 0 -181 -26 -244 -63 -47 -28
-157 -29 -198 -2 -19 12 -38 16 -65 12 -21 -3 -58 1 -81 8 l-43 12 -1 53 -1
52 -56 25 c-31 14 -59 34 -62 44 -8 25 -31 30 -93 20 -77 -12 -149 -2 -191 26
-25 17 -43 23 -61 18 -100 -26 -136 -18 -157 33 -20 50 -60 81 -103 82 -40 1
-69 19 -62 38 2 7 -5 16 -17 19 -12 3 -21 8 -21 12 1 16 51 52 81 58 19 3 43
12 54 19 18 12 30 10 84 -8 l64 -22 86 22 c129 34 216 26 315 -28 55 -30 86
-34 233 -32 71 2 95 6 109 19 11 11 36 18 73 20 31 1 79 10 108 19 44 15 56
16 77 5 36 -20 72 -7 91 33 19 39 53 59 123 72 l32 6 0 237 0 236 -147 -8
c-213 -11 -239 -12 -330 -22 -67 -6 -91 -5 -125 8 -73 28 -156 38 -333 42 -93
2 -192 8 -219 13 -27 6 -88 8 -135 7 -140 -6 -184 2 -225 41 -20 19 -36 41
-36 49 0 8 -5 15 -11 15 -6 0 -8 -7 -5 -16 4 -9 2 -22 -3 -28 -13 -16 -108 -8
-115 10 -6 16 7 85 32 177 16 57 42 78 42 33 0 -13 7 -57 17 -97 13 -59 18
-69 24 -51 5 13 7 64 5 115 -2 51 1 124 6 162 9 64 62 248 92 320 7 17 24 65
36 107 14 45 33 87 47 100 21 20 23 20 23 3 0 -12 3 -16 10 -9 8 8 14 107 19
307 1 27 21 40 21 13 0 -7 6 -19 13 -25 8 -6 20 -30 27 -53 l13 -43 8 30 c10
35 5 205 -9 320 -6 44 -13 103 -17 130 -7 60 7 91 29 63 7 -10 18 -18 25 -18
6 0 11 -6 11 -12 0 -9 2 -10 8 -2 5 8 25 9 61 4 30 -4 86 -4 125 0 50 5 81 3
103 -7 18 -7 54 -13 80 -13 26 0 58 -3 70 -6 27 -7 47 -54 38 -92 -4 -19 0
-44 11 -68 21 -50 19 -85 -7 -105 -29 -22 -23 -64 10 -63 13 0 34 -10 47 -23
13 -12 34 -23 48 -23 14 0 36 -5 49 -11 28 -13 141 6 132 22 -4 5 3 9 14 9 12
0 21 -3 21 -7 0 -5 48 -8 108 -8 59 0 94 3 77 6 -21 5 -24 7 -9 8 12 0 37 -6
56 -13 35 -15 82 -11 72 5 -3 5 4 9 15 9 11 0 34 13 51 30 l30 29 0 390 0 390
-31 -11 c-46 -16 -208 -4 -261 20 -65 29 -72 42 -69 132 2 85 -21 190 -43 190
-25 0 -54 49 -67 115 -12 60 -19 73 -69 125 l-55 58 -145 7 c-83 4 -177 14
-220 25 -41 10 -97 21 -124 25 -27 4 -55 9 -62 12 -15 5 -101 115 -111 139 -3
8 -11 14 -19 14 -7 0 -21 25 -31 56 -20 64 -33 73 -77 55 -17 -7 -42 -15 -56
-17 -38 -6 -131 16 -137 32 -3 8 -13 14 -22 14 -22 0 -56 37 -64 68 -4 18 -2
22 9 18 7 -3 13 -2 12 2 -3 15 37 70 64 88 24 16 28 24 24 47 -4 20 -1 29 12
34 9 3 25 13 35 21 50 44 156 42 -2438 42 l-2455 0 0 -675z m4707 564 c-11 -7
-23 -7 -28 -2 -5 5 3 9 19 11 24 1 25 0 9 -9z m-12 -47 c16 -11 17 -42 2 -42
-17 0 -37 20 -37 37 0 14 19 17 35 5z m-4142 -1599 c-13 -2 -33 -2 -45 0 -13
2 -3 4 22 4 25 0 35 -2 23 -4z m1183 -189 c-4 -12 -10 -14 -17 -7 -5 5 -7 17
-3 27 4 12 10 14 17 7 5 -5 7 -17 3 -27z m3914 -3234 c-20 -13 -50 -13 -50 0
0 6 15 10 33 10 24 0 28 -3 17 -10z m-210 -34 c0 -9 12 -16 28 -18 20 -2 27
-9 28 -25 1 -12 -2 -20 -6 -18 -4 3 -13 -15 -19 -40 -14 -57 -36 -61 -28 -6 4
32 2 39 -10 34 -12 -5 -14 0 -8 26 4 19 3 30 -3 29 -6 -2 -10 0 -11 5 -3 21 0
27 14 27 8 0 15 -6 15 -14z m86 -117 c-3 -18 -1 -38 5 -45 13 -16 2 -57 -13
-48 -6 4 -8 -1 -4 -14 4 -11 2 -23 -4 -27 -19 -12 -24 3 -11 31 9 20 9 30 1
38 -8 8 -13 7 -19 -3 -6 -10 -10 -10 -16 -1 -4 6 -2 17 4 23 6 6 11 20 11 30
0 14 5 18 20 14 15 -4 20 0 20 14 0 10 3 19 6 19 4 0 4 -14 0 -31z m84 -19 c3
-3 14 -10 25 -16 30 -17 30 -44 1 -70 -32 -30 -36 -30 -36 1 0 16 -4 23 -13
19 -18 -6 -42 22 -27 31 5 3 10 15 10 26 0 13 6 19 18 17 9 -2 19 -5 22 -8z"/>
<path d="M5580 6373 c0 -26 20 -71 20 -46 0 7 14 10 38 8 20 -2 58 -5 84 -7
27 -2 48 -6 48 -10 0 -5 8 -8 19 -8 10 0 33 -10 52 -23 19 -13 42 -26 52 -30
9 -3 17 -11 17 -17 0 -6 4 -9 9 -6 5 3 14 -8 20 -24 5 -17 15 -30 20 -30 6 0
11 -4 11 -10 0 -5 -7 -10 -15 -10 -11 0 -15 -12 -15 -52 0 -40 3 -49 12 -40
21 21 28 13 28 -36 0 -27 6 -55 13 -64 14 -19 95 -38 130 -31 18 4 26 0 29
-14 4 -13 30 -27 92 -47 47 -15 84 -31 81 -36 -6 -10 30 -42 38 -34 4 4 13 1
22 -6 13 -11 15 21 15 294 l0 306 -410 0 -410 0 0 -27z"/>
<path d="M3190 4626 c0 -8 5 -18 10 -21 6 -3 10 3 10 14 0 12 -4 21 -10 21 -5
0 -10 -6 -10 -14z"/>
<path d="M5150 4621 c0 -6 5 -13 10 -16 6 -3 10 1 10 9 0 9 -4 16 -10 16 -5 0
-10 -4 -10 -9z"/>
<path d="M1741 4378 c-1 -15 4 -30 9 -33 12 -7 12 12 0 40 -8 18 -9 17 -9 -7z"/>
<path d="M753 4363 c-7 -3 -13 -13 -13 -24 0 -20 -24 -26 -35 -9 -3 6 -1 10 4
10 6 0 11 3 11 8 0 4 -46 6 -102 4 -127 -4 -138 -12 -137 -88 1 -30 5 -51 10
-48 4 2 16 1 26 -5 29 -15 121 -28 135 -19 20 12 56 9 89 -8 46 -23 68 -25 95
-8 13 9 31 13 40 10 11 -4 24 1 36 14 11 12 32 23 48 26 56 12 59 94 3 94 -13
0 -23 5 -23 11 0 27 -132 50 -187 32z"/>
<path d="M5625 4300 c-3 -5 -1 -10 4 -10 6 0 11 5 11 10 0 6 -2 10 -4 10 -3 0
-8 -4 -11 -10z"/>
<path d="M1840 3410 c0 -6 -30 -10 -70 -10 -52 0 -75 -4 -90 -17 -11 -10 -30
-21 -43 -25 -12 -4 0 -6 28 -3 37 4 46 2 38 -6 -6 -6 -9 -17 -7 -24 4 -9 -10
-15 -45 -20 -28 -4 -51 -10 -51 -14 0 -4 13 -6 29 -3 27 4 29 2 36 -45 5 -26
10 -40 13 -30 2 12 9 16 19 13 8 -3 26 -6 39 -6 13 0 24 -4 24 -10 0 -5 -13
-10 -30 -10 -16 0 -30 -4 -30 -10 0 -14 43 -13 57 1 9 9 103 14 140 8 20 -4
53 2 52 9 -1 4 0 9 1 12 1 3 3 27 6 55 4 64 -31 149 -51 121 -15 -20 -25 -21
-25 -2 0 8 -7 17 -16 20 -21 8 -24 8 -24 -4z"/>
<path d="M0 3224 c0 -165 1 -174 19 -174 34 0 51 -11 51 -34 0 -15 3 -17 9 -8
6 11 10 10 15 -3 3 -9 12 -15 20 -12 8 3 34 -13 61 -38 25 -24 55 -47 66 -50
16 -6 20 -14 18 -43 -5 -62 11 -112 47 -147 35 -36 64 -93 64 -130 0 -12 -9
-44 -21 -70 -13 -28 -19 -61 -17 -81 2 -19 0 -35 -5 -37 -5 -1 11 -13 35 -25
39 -19 65 -22 209 -26 187 -6 263 6 265 40 0 10 4 43 8 72 9 59 3 68 -59 96
-16 7 -52 34 -80 59 -27 26 -53 47 -58 47 -17 0 -87 51 -82 60 3 6 3 10 -2 10
-4 0 -20 22 -35 49 -31 55 -35 99 -14 169 8 26 18 65 22 87 5 22 13 39 18 37
11 -4 33 45 37 80 5 52 -23 113 -48 104 -8 -3 -11 -1 -8 4 3 6 0 12 -7 14 -7
2 -39 11 -70 21 -31 9 -59 22 -61 28 -2 7 -24 12 -55 11 -28 0 -50 4 -49 9 1
5 -10 11 -25 14 -20 3 -28 -1 -28 -12 0 -11 -11 -15 -40 -15 -22 0 -40 4 -40
8 0 5 -25 7 -55 4 -37 -3 -55 -1 -55 7 0 6 7 11 15 11 22 0 19 18 -4 25 -65
20 -61 32 -61 -161z"/>
<path d="M2011 3304 c0 -11 3 -14 6 -6 3 7 2 16 -1 19 -3 4 -6 -2 -5 -13z"/>
<path d="M1620 3270 c0 -5 5 -10 10 -10 6 0 10 5 10 10 0 6 -4 10 -10 10 -5 0
-10 -4 -10 -10z"/>
<path d="M2041 3214 c0 -11 3 -14 6 -6 3 7 2 16 -1 19 -3 4 -6 -2 -5 -13z"/>
<path d="M1867 2984 c-15 -8 -25 -19 -22 -24 9 -14 -15 -23 -30 -10 -17 14
-44 -1 -71 -41 -10 -16 -24 -29 -30 -29 -29 0 -47 -40 -46 -101 1 -65 -6 -77
-73 -125 l-30 -21 38 -35 c39 -37 78 -51 116 -41 20 5 21 7 5 24 -15 17 -15
19 7 28 13 5 35 13 49 19 24 10 24 11 3 11 -22 1 -34 31 -13 31 5 0 12 11 16
24 5 23 63 56 96 56 16 0 37 -32 38 -57 0 -19 7 -22 85 -28 69 -6 89 -5 103 7
9 9 32 18 51 22 19 3 39 14 46 23 11 15 13 15 19 -5 8 -25 26 -30 26 -7 0 21
-90 195 -101 195 -5 0 -11 -11 -15 -25 -3 -14 -10 -25 -15 -25 -12 0 -11 37 1
61 9 15 7 21 -7 26 -10 3 -27 14 -38 23 -21 18 -108 40 -153 40 -15 -1 -40 -8
-55 -16z m293 -154 c0 -11 -4 -20 -10 -20 -5 0 -10 9 -10 20 0 11 5 20 10 20
6 0 10 -9 10 -20z m-460 -234 c0 -3 -4 -8 -10 -11 -5 -3 -10 -1 -10 4 0 6 5
11 10 11 6 0 10 -2 10 -4z"/>
<path d="M18 2432 c-13 -2 -18 -13 -18 -37 l0 -33 55 -4 c31 -1 63 0 72 3 23
8 24 48 2 60 -21 11 -85 17 -111 11z"/>
<path d="M2381 2378 c-1 -16 4 -28 9 -28 6 0 11 -10 11 -22 1 -15 3 -18 6 -7
2 9 -3 32 -11 50 -14 34 -14 34 -15 7z"/>
<path d="M2039 1931 c-31 -15 -74 -46 -95 -67 -34 -34 -52 -42 -134 -62 -52
-12 -105 -22 -118 -22 -12 0 -25 -7 -28 -15 -4 -8 -14 -15 -24 -15 -21 0 -140
-60 -140 -71 0 -5 -16 -11 -35 -15 -19 -3 -38 -10 -41 -16 -3 -5 -14 -6 -25
-3 -13 4 -19 2 -19 -9 0 -10 -9 -16 -21 -16 -14 0 -19 -5 -16 -15 6 -14 -40
-55 -62 -55 -15 0 -128 -57 -135 -68 -3 -5 -30 -17 -61 -28 -74 -25 -86 -46
-49 -85 15 -16 33 -29 40 -29 24 0 38 -29 25 -56 -11 -26 1 -70 18 -60 4 3 24
-6 44 -19 42 -29 91 -37 144 -23 121 31 184 39 278 35 134 -6 205 -19 205 -37
0 -5 -21 -24 -46 -42 -29 -21 -47 -42 -51 -60 -3 -15 -10 -28 -15 -28 -5 0 -7
-4 -3 -9 7 -12 -56 -61 -78 -61 -8 0 -29 -12 -46 -26 -17 -14 -31 -22 -31 -18
0 4 -9 -2 -20 -14 -12 -12 -27 -22 -34 -22 -7 0 -25 -9 -39 -20 -19 -15 -40
-20 -85 -20 -33 0 -62 -4 -64 -9 -1 -5 -34 -11 -72 -13 -39 -3 -71 -9 -73 -15
-4 -11 78 -29 107 -25 8 2 38 5 65 7 62 6 80 -13 65 -67 -13 -44 -13 -44 12
-55 l22 -9 -22 -22 c-12 -12 -22 -26 -22 -32 0 -5 -4 -10 -10 -10 -5 0 -10 -5
-10 -12 0 -6 10 -2 23 10 28 27 32 27 34 3 1 -13 -4 -17 -16 -14 -21 5 -53
-28 -33 -34 21 -8 13 -21 -9 -16 -15 4 -22 0 -26 -15 -3 -15 -21 -26 -57 -38
-28 -9 -55 -20 -61 -24 -5 -4 -26 -10 -46 -14 -21 -4 -42 -13 -49 -21 -7 -8
-19 -15 -26 -15 -8 0 -14 -6 -14 -14 0 -7 -15 -19 -32 -26 -18 -6 -41 -16 -50
-21 -49 -26 -195 1 -209 38 -8 21 -15 23 -71 23 -35 0 -88 7 -118 16 -67 19
-157 36 -189 35 -14 -1 -27 3 -31 8 -6 11 -112 15 -155 6 -16 -4 -43 -13 -60
-20 -16 -8 -56 -17 -87 -20 l-58 -6 0 -184 0 -183 34 5 c19 2 44 0 54 -6 11
-6 42 -13 68 -17 27 -3 62 -11 79 -18 16 -7 44 -17 60 -22 30 -10 215 -11 270
-2 111 19 144 20 197 4 45 -13 106 -16 308 -16 l253 0 -6 37 c-4 21 -11 39
-17 41 -21 7 -8 39 34 83 57 59 67 80 70 141 3 51 3 51 46 64 28 8 50 10 60 4
10 -5 20 -7 22 -4 3 3 43 7 89 10 49 4 90 12 99 20 56 49 228 105 278 90 9 -3
48 -8 86 -11 38 -3 72 -8 77 -11 5 -3 14 7 19 21 8 20 15 25 30 20 17 -5 20
-2 20 20 0 14 9 35 20 47 17 19 20 19 20 5 0 -9 -4 -17 -10 -17 -13 0 -13 -47
-1 -55 16 -9 23 14 26 78 3 67 27 100 65 90 11 -3 20 0 20 6 0 6 4 11 9 11 6
0 5 -14 0 -35 -10 -36 -5 -60 12 -50 5 4 9 -2 10 -12 0 -10 3 -13 5 -6 3 7 0
21 -5 32 -6 11 -7 22 -3 25 5 3 17 27 26 53 23 64 38 95 54 111 6 7 12 17 12
22 0 9 220 235 253 260 17 12 16 9 -3 -25 -19 -34 -20 -37 -3 -25 10 8 23 21
28 28 7 8 10 -11 10 -63 1 -63 -2 -74 -15 -70 -10 3 -21 -7 -32 -33 -9 -20
-35 -57 -58 -82 -37 -41 -140 -231 -140 -259 0 -6 -4 -19 -9 -29 -25 -48 -48
-111 -87 -237 -22 -69 -35 -96 -58 -123 -14 -16 -17 -25 -9 -33 12 -12 11 -16
-20 -77 -31 -61 -28 -63 79 -60 l96 3 17 40 c9 22 23 51 31 65 8 14 22 45 31
70 9 25 36 86 59 135 24 50 56 119 73 155 16 36 33 72 38 80 5 8 15 26 21 40
7 14 26 48 43 75 16 28 37 64 45 80 8 17 18 32 22 35 11 9 98 154 98 165 1 5
19 28 41 50 31 32 38 45 34 65 -4 19 -3 22 5 10 9 -13 13 -11 31 10 11 14 28
35 39 46 17 19 18 23 6 34 -8 6 -18 26 -21 43 -4 18 -18 54 -31 80 -13 27 -24
53 -24 58 0 8 -25 68 -53 127 -7 15 -17 22 -28 19 -36 -10 -44 7 -29 67 13 54
30 76 30 39 0 -12 8 -5 21 17 29 47 54 70 79 70 12 0 20 7 20 16 0 12 -4 14
-12 7 -27 -21 -47 -21 -69 -2 -12 10 -29 19 -38 19 -108 2 -380 22 -415 31
-26 6 -54 22 -65 34 -9 13 -36 28 -59 35 -23 6 -57 19 -75 29 -30 18 -69 31
-187 61 -24 7 -55 21 -69 31 -30 24 -25 24 -92 -10z m1002 -623 c-9 -20 -10
-18 -10 17 0 31 2 36 9 23 6 -10 7 -25 1 -40z m55 -89 c-5 -28 -4 -30 17 -25
12 3 16 3 10 0 -7 -3 -13 -12 -13 -19 0 -7 6 -15 13 -18 9 -3 7 -9 -5 -23 -10
-10 -19 -16 -20 -13 -14 21 -48 89 -48 95 0 3 7 3 16 0 11 -4 18 1 21 14 8 32
16 23 9 -11z m4 -119 c0 -5 -4 -10 -10 -10 -5 0 -10 5 -10 10 0 6 5 10 10 10
6 0 10 -4 10 -10z m-55 -50 c3 -5 -1 -10 -10 -10 -9 0 -13 5 -10 10 3 6 8 10
10 10 2 0 7 -4 10 -10z m-1545 -349 c0 -11 -4 -23 -10 -26 -6 -4 -10 5 -10 19
0 14 5 26 10 26 6 0 10 -9 10 -19z m-50 -16 c0 -19 -20 -29 -32 -17 -8 8 -7
16 2 26 14 17 30 12 30 -9z m-95 -325 c3 -5 -3 -10 -15 -10 -12 0 -18 5 -15
10 3 6 10 10 15 10 5 0 12 -4 15 -10z"/>
<path d="M3194 1778 c9 -52 12 -56 33 -35 16 16 16 17 0 17 -12 0 -17 8 -17
30 0 17 -5 30 -11 30 -8 0 -9 -14 -5 -42z"/>
<path d="M720 1460 c0 -6 -18 -10 -40 -10 -29 0 -40 -4 -40 -15 0 -11 11 -15
40 -15 23 0 40 5 40 11 0 7 11 9 33 4 81 -17 116 -17 132 -1 15 14 13 15 -14
10 -17 -4 -37 -2 -43 3 -18 14 -108 25 -108 13z"/>
<path d="M391 1229 c-24 -11 -41 -22 -38 -25 3 -3 -24 -21 -59 -40 -46 -24
-79 -34 -110 -34 -24 0 -44 -4 -44 -8 0 -4 -28 -9 -62 -10 -35 -2 -66 -8 -70
-15 -4 -7 -8 -36 -8 -65 0 -67 23 -96 69 -89 18 3 38 10 44 16 55 45 264 64
347 31 98 -39 188 -34 251 13 34 24 38 57 9 64 -27 7 -25 35 5 63 34 32 32 50
-9 82 -43 35 -93 40 -109 13 -6 -11 -12 -22 -12 -25 -3 -20 -29 -49 -47 -52
-30 -5 -68 11 -68 29 0 7 -10 13 -22 13 l-21 0 21 19 c49 42 9 54 -67 20z m36
-25 c-3 -3 -12 -4 -19 -1 -8 3 -5 6 6 6 11 1 17 -2 13 -5z"/>
<path d="M2662 963 c-13 -13 -21 -31 -19 -41 4 -16 5 -16 6 1 0 9 5 17 11 17
9 0 35 39 28 45 -2 1 -13 -8 -26 -22z"/>
<path d="M3365 816 c-125 -129 -325 -361 -325 -378 0 -4 -15 -30 -34 -56 -18
-26 -48 -75 -65 -108 -35 -65 -37 -66 -137 -119 -79 -42 -97 -43 -111 -7 -10
24 -11 25 -12 5 -1 -12 4 -25 9 -28 6 -3 10 -13 10 -21 0 -8 9 -34 21 -59 l21
-45 55 0 c45 0 54 3 49 15 -3 9 5 24 20 37 14 13 46 63 71 113 25 49 63 116
84 147 22 31 39 61 39 65 0 4 20 35 45 68 25 33 53 71 62 85 17 22 71 86 101
118 6 7 26 35 44 60 18 26 43 58 55 72 32 34 77 99 72 104 -2 2 -35 -28 -74
-68z"/>
<path d="M1058 853 c6 -2 18 -2 25 0 6 3 1 5 -13 5 -14 0 -19 -2 -12 -5z"/>
<path d="M1106 852 c-2 -4 -1 -14 5 -22 7 -12 9 -10 9 8 0 23 -5 28 -14 14z"/>
<path d="M2471 694 c0 -11 3 -14 6 -6 3 7 2 16 -1 19 -3 4 -6 -2 -5 -13z"/>
<path d="M2431 624 c0 -11 3 -14 6 -6 3 7 2 16 -1 19 -3 4 -6 -2 -5 -13z"/>
<path d="M2351 568 c-5 -18 -10 -25 -10 -15 -1 10 -6 15 -12 12 -6 -5 -8 -22
-4 -46 4 -22 3 -45 -2 -52 -5 -7 -16 -32 -23 -57 -8 -25 -22 -58 -32 -75 -19
-32 -25 -101 -8 -90 6 3 10 15 10 26 0 10 4 27 9 37 5 9 13 28 19 42 14 35 41
92 51 110 18 29 41 88 41 103 0 8 -7 20 -15 27 -12 10 -16 6 -24 -22z"/>
<path d="M4580 506 c0 -8 5 -18 10 -21 6 -3 10 -17 10 -31 0 -13 4 -32 9 -42
5 -9 21 -48 37 -87 33 -86 55 -136 105 -243 l39 -82 146 0 146 0 -26 34 c-14
19 -26 37 -26 40 0 7 -131 209 -140 216 -3 3 -17 21 -30 40 -41 59 -136 146
-184 168 -53 26 -96 29 -96 8z"/>
<path d="M3431 404 c0 -11 3 -14 6 -6 3 7 2 16 -1 19 -3 4 -6 -2 -5 -13z"/>
<path d="M3411 354 c0 -11 3 -14 6 -6 3 7 2 16 -1 19 -3 4 -6 -2 -5 -13z"/>
<path d="M3371 244 c0 -11 3 -14 6 -6 3 7 2 16 -1 19 -3 4 -6 -2 -5 -13z"/>
<path d="M2229 230 c-1 -8 0 -21 1 -29 1 -8 -4 -17 -10 -21 -7 -4 -13 -21 -14
-38 -1 -17 -7 -37 -14 -44 -6 -6 -12 -25 -12 -41 0 -26 2 -28 29 -22 32 7 53
-11 30 -26 -11 -7 -11 -9 2 -9 18 0 49 31 49 49 0 9 -11 11 -39 6 -34 -5 -39
-4 -44 15 -3 12 0 23 7 26 7 3 13 19 14 36 0 17 6 44 13 60 9 22 9 32 0 41 -8
8 -11 7 -12 -3z"/>
<path d="M3301 14 c0 -11 3 -14 6 -6 3 7 2 16 -1 19 -3 4 -6 -2 -5 -13z"/>
</g>
</svg>
